{
	"asset":{
		"generator":"Khronos glTF Blender I/O v3.6.28",
		"version":"2.0"
	},
	"scene":0,
	"scenes":[
		{
			"name":"Scene",
			"nodes":[
				25
			]
		}
	],
	"nodes":[
		{
			"mesh":0,
			"name":"Flor Pet.001_Flower_0"
		},
		{
			"mesh":1,
			"name":"Flor Pet.001_Flower_0.001"
		},
		{
			"children":[
				0,
				1
			],
			"name":"Flor Pet.001",
			"rotation":[
				0.48094281554222107,
				0.2719246447086334,
				-0.20978006720542908,
				0.8066866397857666
			],
			"translation":[
				0.008189947344362736,
				-0.1139623299241066,
				0.018605496734380722
			]
		},
		{
			"mesh":2,
			"name":"Flor Pet.002_Flower_0"
		},
		{
			"mesh":3,
			"name":"Flor Pet.002_Flower_0.001"
		},
		{
			"children":[
				3,
				4
			],
			"name":"Flor Pet.002",
			"rotation":[
				-0.07141298055648804,
				-0.6295996308326721,
				-0.6269075274467468,
				0.4533116817474365
			],
			"translation":[
				-0.0786726176738739,
				0.11961311101913452,
				0.0051774997264146805
			]
		},
		{
			"mesh":4,
			"name":"Flor Pet.003_Flower_0"
		},
		{
			"mesh":5,
			"name":"Flor Pet.003_Flower_0.001"
		},
		{
			"children":[
				6,
				7
			],
			"name":"Flor Pet.003",
			"rotation":[
				-0.05905880779027939,
				-0.515438973903656,
				0.0356391966342926,
				0.8541455864906311
			],
			"translation":[
				-0.14492414891719818,
				-0.0417899452149868,
				0.025309789925813675
			]
		},
		{
			"mesh":6,
			"name":"Flor Pet.004_Flower_0"
		},
		{
			"mesh":7,
			"name":"Flor Pet.004_Flower_0.001"
		},
		{
			"children":[
				9,
				10
			],
			"name":"Flor Pet.004",
			"rotation":[
				0,
				0.507899820804596,
				0,
				0.8614161610603333
			],
			"translation":[
				0.09810008108615875,
				-0.005968459881842136,
				-0.0010522156953811646
			]
		},
		{
			"mesh":8,
			"name":"Flor Pet.005_Flower_0"
		},
		{
			"mesh":9,
			"name":"Flor Pet.005_Flower_0.001"
		},
		{
			"children":[
				12,
				13
			],
			"name":"Flor Pet.005",
			"rotation":[
				-0.4241832494735718,
				0.3238660991191864,
				0.3020625412464142,
				0.7898972034454346
			],
			"translation":[
				0.08381619304418564,
				0.14998197555541992,
				0.014140087179839611
			]
		},
		{
			"mesh":10,
			"name":"Flor Pet.006_Flower_0"
		},
		{
			"mesh":11,
			"name":"Flor Pet.006_Flower_0.001"
		},
		{
			"children":[
				15,
				16
			],
			"name":"Flor Pet.006",
			"rotation":[
				-0.5879183411598206,
				0.5260329246520996,
				-0.20172721147537231,
				0.5804718136787415
			],
			"translation":[
				0.24214375019073486,
				0.14515270292758942,
				-0.0124064264819026
			]
		},
		{
			"mesh":12,
			"name":"Flor Pet_Flower_0"
		},
		{
			"mesh":13,
			"name":"Flor Pet_Flower_0.001"
		},
		{
			"children":[
				2,
				5,
				8,
				11,
				14,
				17,
				18,
				19
			],
			"name":"Flor Pet",
			"rotation":[
				0,
				0,
				-0.9061165452003479,
				0.4230281412601471
			],
			"translation":[
				0.0017372063593938947,
				0.022236833348870277,
				0.40003693103790283
			]
		},
		{
			"mesh":14,
			"name":"Florero lp_florero_0"
		},
		{
			"children":[
				20,
				21
			],
			"name":"Florero lp",
			"rotation":[
				-0.70710688829422,
				0,
				0,
				0.7071066498756409
			],
			"scale":[
				99.99998474121094,
				99.9999771118164,
				99.9999771118164
			],
			"translation":[
				0,
				34.80167770385742,
				0
			]
		},
		{
			"children":[
				22
			],
			"name":"RootNode"
		},
		{
			"children":[
				23
			],
			"name":"Flower Vase.fbx",
			"rotation":[
				0.70710688829422,
				0,
				0,
				0.7071066498756409
			],
			"scale":[
				0.009999999776482582,
				0.010000000707805157,
				0.010000000707805157
			]
		},
		{
			"children":[
				24
			],
			"name":"Sketchfab_model",
			"rotation":[
				-0.70710688829422,
				0,
				0,
				0.7071066498756409
			]
		}
	],
	"materials":[
		{
			"doubleSided":true,
			"name":"Flower",
			"pbrMetallicRoughness":{}
		},
		{
			"doubleSided":true,
			"name":"florero",
			"pbrMetallicRoughness":{}
		}
	],
	"meshes":[
		{
			"name":"Flor Pet.001_Flower_0",
			"primitives":[
				{
					"attributes":{
						"POSITION":0,
						"NORMAL":1,
						"TEXCOORD_0":2
					},
					"indices":3,
					"material":0
				}
			]
		},
		{
			"name":"Flor Pet.001_Flower_0.001",
			"primitives":[
				{
					"attributes":{
						"POSITION":4,
						"NORMAL":5,
						"TEXCOORD_0":6
					},
					"indices":7,
					"material":0
				}
			]
		},
		{
			"name":"Flor Pet.002_Flower_0",
			"primitives":[
				{
					"attributes":{
						"POSITION":8,
						"NORMAL":9,
						"TEXCOORD_0":10
					},
					"indices":11,
					"material":0
				}
			]
		},
		{
			"name":"Flor Pet.002_Flower_0.001",
			"primitives":[
				{
					"attributes":{
						"POSITION":12,
						"NORMAL":13,
						"TEXCOORD_0":14
					},
					"indices":15,
					"material":0
				}
			]
		},
		{
			"name":"Flor Pet.003_Flower_0",
			"primitives":[
				{
					"attributes":{
						"POSITION":16,
						"NORMAL":17,
						"TEXCOORD_0":18
					},
					"indices":19,
					"material":0
				}
			]
		},
		{
			"name":"Flor Pet.003_Flower_0.001",
			"primitives":[
				{
					"attributes":{
						"POSITION":20,
						"NORMAL":21,
						"TEXCOORD_0":22
					},
					"indices":23,
					"material":0
				}
			]
		},
		{
			"name":"Flor Pet.004_Flower_0",
			"primitives":[
				{
					"attributes":{
						"POSITION":24,
						"NORMAL":25,
						"TEXCOORD_0":26
					},
					"indices":27,
					"material":0
				}
			]
		},
		{
			"name":"Flor Pet.004_Flower_0.001",
			"primitives":[
				{
					"attributes":{
						"POSITION":28,
						"NORMAL":29,
						"TEXCOORD_0":30
					},
					"indices":31,
					"material":0
				}
			]
		},
		{
			"name":"Flor Pet.005_Flower_0",
			"primitives":[
				{
					"attributes":{
						"POSITION":32,
						"NORMAL":33,
						"TEXCOORD_0":34
					},
					"indices":35,
					"material":0
				}
			]
		},
		{
			"name":"Flor Pet.005_Flower_0.001",
			"primitives":[
				{
					"attributes":{
						"POSITION":36,
						"NORMAL":37,
						"TEXCOORD_0":38
					},
					"indices":39,
					"material":0
				}
			]
		},
		{
			"name":"Flor Pet.006_Flower_0",
			"primitives":[
				{
					"attributes":{
						"POSITION":40,
						"NORMAL":41,
						"TEXCOORD_0":42
					},
					"indices":43,
					"material":0
				}
			]
		},
		{
			"name":"Flor Pet.006_Flower_0.001",
			"primitives":[
				{
					"attributes":{
						"POSITION":44,
						"NORMAL":45,
						"TEXCOORD_0":46
					},
					"indices":47,
					"material":0
				}
			]
		},
		{
			"name":"Flor Pet_Flower_0",
			"primitives":[
				{
					"attributes":{
						"POSITION":48,
						"NORMAL":49,
						"TEXCOORD_0":50
					},
					"indices":51,
					"material":0
				}
			]
		},
		{
			"name":"Flor Pet_Flower_0.001",
			"primitives":[
				{
					"attributes":{
						"POSITION":52,
						"NORMAL":53,
						"TEXCOORD_0":54
					},
					"indices":55,
					"material":0
				}
			]
		},
		{
			"name":"Florero lp_florero_0",
			"primitives":[
				{
					"attributes":{
						"POSITION":56,
						"NORMAL":57,
						"TEXCOORD_0":58
					},
					"indices":59,
					"material":1
				}
			]
		}
	],
	"accessors":[
		{
			"bufferView":0,
			"componentType":5126,
			"count":65834,
			"max":[
				0.12735702097415924,
				0.14549167454242706,
				0.08438397943973541
			],
			"min":[
				-0.1504446119070053,
				-0.14522504806518555,
				-0.11990588158369064
			],
			"type":"VEC3"
		},
		{
			"bufferView":1,
			"componentType":5126,
			"count":65834,
			"type":"VEC3"
		},
		{
			"bufferView":2,
			"componentType":5126,
			"count":65834,
			"type":"VEC2"
		},
		{
			"bufferView":3,
			"componentType":5125,
			"count":341043,
			"type":"SCALAR"
		},
		{
			"bufferView":4,
			"componentType":5126,
			"count":32014,
			"max":[
				0.12730492651462555,
				0.09924864768981934,
				0.08438397943973541
			],
			"min":[
				-0.1411488950252533,
				-0.09994369000196457,
				-0.11848580092191696
			],
			"type":"VEC3"
		},
		{
			"bufferView":5,
			"componentType":5126,
			"count":32014,
			"type":"VEC3"
		},
		{
			"bufferView":6,
			"componentType":5126,
			"count":32014,
			"type":"VEC2"
		},
		{
			"bufferView":7,
			"componentType":5123,
			"count":161997,
			"type":"SCALAR"
		},
		{
			"bufferView":8,
			"componentType":5126,
			"count":65831,
			"max":[
				0.1273571252822876,
				0.14549176394939423,
				0.08438397198915482
			],
			"min":[
				-0.15044470131397247,
				-0.14522510766983032,
				-0.11392148584127426
			],
			"type":"VEC3"
		},
		{
			"bufferView":9,
			"componentType":5126,
			"count":65831,
			"type":"VEC3"
		},
		{
			"bufferView":10,
			"componentType":5126,
			"count":65831,
			"type":"VEC2"
		},
		{
			"bufferView":11,
			"componentType":5125,
			"count":341043,
			"type":"SCALAR"
		},
		{
			"bufferView":12,
			"componentType":5126,
			"count":32031,
			"max":[
				0.1273050308227539,
				0.09924880415201187,
				0.08438397198915482
			],
			"min":[
				-0.14114901423454285,
				-0.09994369000196457,
				-0.1131196990609169
			],
			"type":"VEC3"
		},
		{
			"bufferView":13,
			"componentType":5126,
			"count":32031,
			"type":"VEC3"
		},
		{
			"bufferView":14,
			"componentType":5126,
			"count":32031,
			"type":"VEC2"
		},
		{
			"bufferView":15,
			"componentType":5123,
			"count":161997,
			"type":"SCALAR"
		},
		{
			"bufferView":16,
			"componentType":5126,
			"count":65773,
			"max":[
				0.1273571252822876,
				0.14549173414707184,
				0.08438408374786377
			],
			"min":[
				-0.15044468641281128,
				-0.14522507786750793,
				-0.17612817883491516
			],
			"type":"VEC3"
		},
		{
			"bufferView":17,
			"componentType":5126,
			"count":65773,
			"type":"VEC3"
		},
		{
			"bufferView":18,
			"componentType":5126,
			"count":65773,
			"type":"VEC2"
		},
		{
			"bufferView":19,
			"componentType":5125,
			"count":337620,
			"type":"SCALAR"
		},
		{
			"bufferView":20,
			"componentType":5126,
			"count":35109,
			"max":[
				0.1273050159215927,
				0.09924878925085068,
				0.08438408374786377
			],
			"min":[
				-0.1501833200454712,
				-0.14432761073112488,
				-0.16847887635231018
			],
			"type":"VEC3"
		},
		{
			"bufferView":21,
			"componentType":5126,
			"count":35109,
			"type":"VEC3"
		},
		{
			"bufferView":22,
			"componentType":5126,
			"count":35109,
			"type":"VEC2"
		},
		{
			"bufferView":23,
			"componentType":5123,
			"count":175788,
			"type":"SCALAR"
		},
		{
			"bufferView":24,
			"componentType":5126,
			"count":65827,
			"max":[
				0.1273570954799652,
				0.14549171924591064,
				0.08438403159379959
			],
			"min":[
				-0.15044473111629486,
				-0.14522506296634674,
				-0.11108501255512238
			],
			"type":"VEC3"
		},
		{
			"bufferView":25,
			"componentType":5126,
			"count":65827,
			"type":"VEC3"
		},
		{
			"bufferView":26,
			"componentType":5126,
			"count":65827,
			"type":"VEC2"
		},
		{
			"bufferView":27,
			"componentType":5125,
			"count":341043,
			"type":"SCALAR"
		},
		{
			"bufferView":28,
			"componentType":5126,
			"count":32018,
			"max":[
				0.12730498611927032,
				0.09924877434968948,
				0.08438403159379959
			],
			"min":[
				-0.14114902913570404,
				-0.09994367510080338,
				-0.10978606343269348
			],
			"type":"VEC3"
		},
		{
			"bufferView":29,
			"componentType":5126,
			"count":32018,
			"type":"VEC3"
		},
		{
			"bufferView":30,
			"componentType":5126,
			"count":32018,
			"type":"VEC2"
		},
		{
			"bufferView":31,
			"componentType":5123,
			"count":161997,
			"type":"SCALAR"
		},
		{
			"bufferView":32,
			"componentType":5126,
			"count":65698,
			"max":[
				0.1273571252822876,
				0.14549176394939423,
				0.08438408374786377
			],
			"min":[
				-0.15044468641281128,
				-0.14522510766983032,
				-0.1535475254058838
			],
			"type":"VEC3"
		},
		{
			"bufferView":33,
			"componentType":5126,
			"count":65698,
			"type":"VEC3"
		},
		{
			"bufferView":34,
			"componentType":5126,
			"count":65698,
			"type":"VEC2"
		},
		{
			"bufferView":35,
			"componentType":5125,
			"count":340497,
			"type":"SCALAR"
		},
		{
			"bufferView":36,
			"componentType":5126,
			"count":37813,
			"max":[
				0.1273050159215927,
				0.09924880415201187,
				0.08438408374786377
			],
			"min":[
				-0.1501833200454712,
				-0.14508958160877228,
				-0.15340863168239594
			],
			"type":"VEC3"
		},
		{
			"bufferView":37,
			"componentType":5126,
			"count":37813,
			"type":"VEC3"
		},
		{
			"bufferView":38,
			"componentType":5126,
			"count":37813,
			"type":"VEC2"
		},
		{
			"bufferView":39,
			"componentType":5123,
			"count":184047,
			"type":"SCALAR"
		},
		{
			"bufferView":40,
			"componentType":5126,
			"count":65715,
			"max":[
				0.12735706567764282,
				0.14549173414707184,
				0.08438430726528168
			],
			"min":[
				-0.15044456720352173,
				-0.14522509276866913,
				-0.2050769180059433
			],
			"type":"VEC3"
		},
		{
			"bufferView":41,
			"componentType":5126,
			"count":65715,
			"type":"VEC3"
		},
		{
			"bufferView":42,
			"componentType":5126,
			"count":65715,
			"type":"VEC2"
		},
		{
			"bufferView":43,
			"componentType":5125,
			"count":344271,
			"type":"SCALAR"
		},
		{
			"bufferView":44,
			"componentType":5126,
			"count":37312,
			"max":[
				0.12730494141578674,
				0.0992487221956253,
				0.08438430726528168
			],
			"min":[
				-0.15018320083618164,
				-0.14508956670761108,
				-0.20692281424999237
			],
			"type":"VEC3"
		},
		{
			"bufferView":45,
			"componentType":5126,
			"count":37312,
			"type":"VEC3"
		},
		{
			"bufferView":46,
			"componentType":5126,
			"count":37312,
			"type":"VEC2"
		},
		{
			"bufferView":47,
			"componentType":5123,
			"count":178353,
			"type":"SCALAR"
		},
		{
			"bufferView":48,
			"componentType":5126,
			"count":65805,
			"max":[
				0.12735813856124878,
				0.14549101889133453,
				0.09845833480358124
			],
			"min":[
				-0.15044371783733368,
				-0.14522583782672882,
				-0.09782249480485916
			],
			"type":"VEC3"
		},
		{
			"bufferView":49,
			"componentType":5126,
			"count":65805,
			"type":"VEC3"
		},
		{
			"bufferView":50,
			"componentType":5126,
			"count":65805,
			"type":"VEC2"
		},
		{
			"bufferView":51,
			"componentType":5125,
			"count":341043,
			"type":"SCALAR"
		},
		{
			"bufferView":52,
			"componentType":5126,
			"count":32034,
			"max":[
				0.1273060292005539,
				0.09924805909395218,
				0.09845833480358124
			],
			"min":[
				-0.14114801585674286,
				-0.09994440525770187,
				-0.09782249480485916
			],
			"type":"VEC3"
		},
		{
			"bufferView":53,
			"componentType":5126,
			"count":32034,
			"type":"VEC3"
		},
		{
			"bufferView":54,
			"componentType":5126,
			"count":32034,
			"type":"VEC2"
		},
		{
			"bufferView":55,
			"componentType":5123,
			"count":161997,
			"type":"SCALAR"
		},
		{
			"bufferView":56,
			"componentType":5126,
			"count":3787,
			"max":[
				0.17861682176589966,
				0.17861679196357727,
				0.35984936356544495
			],
			"min":[
				-0.17861680686473846,
				-0.17861679196357727,
				-0.36918705701828003
			],
			"type":"VEC3"
		},
		{
			"bufferView":57,
			"componentType":5126,
			"count":3787,
			"type":"VEC3"
		},
		{
			"bufferView":58,
			"componentType":5126,
			"count":3787,
			"type":"VEC2"
		},
		{
			"bufferView":59,
			"componentType":5123,
			"count":19080,
			"type":"SCALAR"
		}
	],
	"bufferViews":[
		{
			"buffer":0,
			"byteLength":790008,
			"byteOffset":0,
			"target":34962
		},
		{
			"buffer":0,
			"byteLength":790008,
			"byteOffset":790008,
			"target":34962
		},
		{
			"buffer":0,
			"byteLength":526672,
			"byteOffset":1580016,
			"target":34962
		},
		{
			"buffer":0,
			"byteLength":1364172,
			"byteOffset":2106688,
			"target":34963
		},
		{
			"buffer":0,
			"byteLength":384168,
			"byteOffset":3470860,
			"target":34962
		},
		{
			"buffer":0,
			"byteLength":384168,
			"byteOffset":3855028,
			"target":34962
		},
		{
			"buffer":0,
			"byteLength":256112,
			"byteOffset":4239196,
			"target":34962
		},
		{
			"buffer":0,
			"byteLength":323994,
			"byteOffset":4495308,
			"target":34963
		},
		{
			"buffer":0,
			"byteLength":789972,
			"byteOffset":4819304,
			"target":34962
		},
		{
			"buffer":0,
			"byteLength":789972,
			"byteOffset":5609276,
			"target":34962
		},
		{
			"buffer":0,
			"byteLength":526648,
			"byteOffset":6399248,
			"target":34962
		},
		{
			"buffer":0,
			"byteLength":1364172,
			"byteOffset":6925896,
			"target":34963
		},
		{
			"buffer":0,
			"byteLength":384372,
			"byteOffset":8290068,
			"target":34962
		},
		{
			"buffer":0,
			"byteLength":384372,
			"byteOffset":8674440,
			"target":34962
		},
		{
			"buffer":0,
			"byteLength":256248,
			"byteOffset":9058812,
			"target":34962
		},
		{
			"buffer":0,
			"byteLength":323994,
			"byteOffset":9315060,
			"target":34963
		},
		{
			"buffer":0,
			"byteLength":789276,
			"byteOffset":9639056,
			"target":34962
		},
		{
			"buffer":0,
			"byteLength":789276,
			"byteOffset":10428332,
			"target":34962
		},
		{
			"buffer":0,
			"byteLength":526184,
			"byteOffset":11217608,
			"target":34962
		},
		{
			"buffer":0,
			"byteLength":1350480,
			"byteOffset":11743792,
			"target":34963
		},
		{
			"buffer":0,
			"byteLength":421308,
			"byteOffset":13094272,
			"target":34962
		},
		{
			"buffer":0,
			"byteLength":421308,
			"byteOffset":13515580,
			"target":34962
		},
		{
			"buffer":0,
			"byteLength":280872,
			"byteOffset":13936888,
			"target":34962
		},
		{
			"buffer":0,
			"byteLength":351576,
			"byteOffset":14217760,
			"target":34963
		},
		{
			"buffer":0,
			"byteLength":789924,
			"byteOffset":14569336,
			"target":34962
		},
		{
			"buffer":0,
			"byteLength":789924,
			"byteOffset":15359260,
			"target":34962
		},
		{
			"buffer":0,
			"byteLength":526616,
			"byteOffset":16149184,
			"target":34962
		},
		{
			"buffer":0,
			"byteLength":1364172,
			"byteOffset":16675800,
			"target":34963
		},
		{
			"buffer":0,
			"byteLength":384216,
			"byteOffset":18039972,
			"target":34962
		},
		{
			"buffer":0,
			"byteLength":384216,
			"byteOffset":18424188,
			"target":34962
		},
		{
			"buffer":0,
			"byteLength":256144,
			"byteOffset":18808404,
			"target":34962
		},
		{
			"buffer":0,
			"byteLength":323994,
			"byteOffset":19064548,
			"target":34963
		},
		{
			"buffer":0,
			"byteLength":788376,
			"byteOffset":19388544,
			"target":34962
		},
		{
			"buffer":0,
			"byteLength":788376,
			"byteOffset":20176920,
			"target":34962
		},
		{
			"buffer":0,
			"byteLength":525584,
			"byteOffset":20965296,
			"target":34962
		},
		{
			"buffer":0,
			"byteLength":1361988,
			"byteOffset":21490880,
			"target":34963
		},
		{
			"buffer":0,
			"byteLength":453756,
			"byteOffset":22852868,
			"target":34962
		},
		{
			"buffer":0,
			"byteLength":453756,
			"byteOffset":23306624,
			"target":34962
		},
		{
			"buffer":0,
			"byteLength":302504,
			"byteOffset":23760380,
			"target":34962
		},
		{
			"buffer":0,
			"byteLength":368094,
			"byteOffset":24062884,
			"target":34963
		},
		{
			"buffer":0,
			"byteLength":788580,
			"byteOffset":24430980,
			"target":34962
		},
		{
			"buffer":0,
			"byteLength":788580,
			"byteOffset":25219560,
			"target":34962
		},
		{
			"buffer":0,
			"byteLength":525720,
			"byteOffset":26008140,
			"target":34962
		},
		{
			"buffer":0,
			"byteLength":1377084,
			"byteOffset":26533860,
			"target":34963
		},
		{
			"buffer":0,
			"byteLength":447744,
			"byteOffset":27910944,
			"target":34962
		},
		{
			"buffer":0,
			"byteLength":447744,
			"byteOffset":28358688,
			"target":34962
		},
		{
			"buffer":0,
			"byteLength":298496,
			"byteOffset":28806432,
			"target":34962
		},
		{
			"buffer":0,
			"byteLength":356706,
			"byteOffset":29104928,
			"target":34963
		},
		{
			"buffer":0,
			"byteLength":789660,
			"byteOffset":29461636,
			"target":34962
		},
		{
			"buffer":0,
			"byteLength":789660,
			"byteOffset":30251296,
			"target":34962
		},
		{
			"buffer":0,
			"byteLength":526440,
			"byteOffset":31040956,
			"target":34962
		},
		{
			"buffer":0,
			"byteLength":1364172,
			"byteOffset":31567396,
			"target":34963
		},
		{
			"buffer":0,
			"byteLength":384408,
			"byteOffset":32931568,
			"target":34962
		},
		{
			"buffer":0,
			"byteLength":384408,
			"byteOffset":33315976,
			"target":34962
		},
		{
			"buffer":0,
			"byteLength":256272,
			"byteOffset":33700384,
			"target":34962
		},
		{
			"buffer":0,
			"byteLength":323994,
			"byteOffset":33956656,
			"target":34963
		},
		{
			"buffer":0,
			"byteLength":45444,
			"byteOffset":34280652,
			"target":34962
		},
		{
			"buffer":0,
			"byteLength":45444,
			"byteOffset":34326096,
			"target":34962
		},
		{
			"buffer":0,
			"byteLength":30296,
			"byteOffset":34371540,
			"target":34962
		},
		{
			"buffer":0,
			"byteLength":38160,
			"byteOffset":34401836,
			"target":34963
		}
	],
	"buffers":[
		{
			"byteLength":34439996,
			"uri":"vase.bin"
		}
	]
}
